HIERARCHY
ROOT joint_Root
{
	OFFSET 0.0 0.0 0.0
	CHANNELS 6 Xposition Yposition Zposition Zrotation Xrotation Yrotation 
	JOINT Hips
	{
		OFFSET 4.5925 91.4895 -427.239
		CHANNELS 6 Xposition Yposition Zposition Zrotation Xrotation Yrotation 
		JOINT Spine
		{
			OFFSET 15.7357 0.0 0.0
			CHANNELS 6 Xposition Yposition Zposition Zrotation Xrotation Yrotation 
			JOINT Chest
			{
				OFFSET 8.98455 -0.406207 0.0
				CHANNELS 6 Xposition Yposition Zposition Zrotation Xrotation Yrotation 
				JOINT Neck
				{
					OFFSET 16.3773 0.0 0.0
					CHANNELS 6 Xposition Yposition Zposition Zrotation Xrotation Yrotation 
					JOINT Head
					{
						OFFSET 6.45672 0.0 0.0
						CHANNELS 6 Xposition Yposition Zposition Zrotation Xrotation Yrotation 
						End Site
						{
							OFFSET 0.0 0.0 0.0
						}
					}
				}
				JOINT Shoulder_L
				{
					OFFSET 12.9942 -0.242716 4.98039
					CHANNELS 6 Xposition Yposition Zposition Zrotation Xrotation Yrotation 
					JOINT UpperArm_L
					{
						OFFSET 5.34809 0.0 0.0
						CHANNELS 6 Xposition Yposition Zposition Zrotation Xrotation Yrotation 
						JOINT LowerArm_L
						{
							OFFSET 24.3286 1.87007e-05 0.0
							CHANNELS 6 Xposition Yposition Zposition Zrotation Xrotation Yrotation 
							JOINT Hand_L
							{
								OFFSET 22.2916 0.0 0.0
								CHANNELS 6 Xposition Yposition Zposition Zrotation Xrotation Yrotation 
								End Site
								{
									OFFSET 0.0 0.0 0.0
								}
							}
						}
					}
				}
				JOINT Shoulder_R
				{
					OFFSET 12.9945 -0.242716 -4.98039
					CHANNELS 6 Xposition Yposition Zposition Zrotation Xrotation Yrotation 
					JOINT UpperArm_R
					{
						OFFSET -5.34813 0.0 0.0
						CHANNELS 6 Xposition Yposition Zposition Zrotation Xrotation Yrotation 
						JOINT LowerArm_R
						{
							OFFSET -24.3289 0.000322201 0.0
							CHANNELS 6 Xposition Yposition Zposition Zrotation Xrotation Yrotation 
							JOINT Hand_R
							{
								OFFSET -22.2915 -0.000108084 0.0
								CHANNELS 6 Xposition Yposition Zposition Zrotation Xrotation Yrotation 
								End Site
								{
									OFFSET 0.0 0.0 0.0
								}
							}
						}
					}
				}
			}
		}
		JOINT UpperLeg_L
		{
			OFFSET -2.19248 -6.46944 0.0
			CHANNELS 6 Xposition Yposition Zposition Zrotation Xrotation Yrotation 
			JOINT LowerLeg_L
			{
				OFFSET 39.0811 0.0 -1.23785e-05
				CHANNELS 6 Xposition Yposition Zposition Zrotation Xrotation Yrotation 
				JOINT Foot_L
				{
					OFFSET 40.9854 0.0 -1.26872e-05
					CHANNELS 6 Xposition Yposition Zposition Zrotation Xrotation Yrotation 
					JOINT Toes_L
					{
						OFFSET 11.7543 0.0 0.0
						CHANNELS 6 Xposition Yposition Zposition Zrotation Xrotation Yrotation 
						End Site
						{
							OFFSET 0.0 0.0 0.0
						}
					}
				}
			}
		}
		JOINT UpperLeg_R
		{
			OFFSET -2.19251 6.46944 0.0
			CHANNELS 6 Xposition Yposition Zposition Zrotation Xrotation Yrotation 
			JOINT LowerLeg_R
			{
				OFFSET -39.0811 -0.00228153 -0.0401928
				CHANNELS 6 Xposition Yposition Zposition Zrotation Xrotation Yrotation 
				JOINT Foot_R
				{
					OFFSET -40.9854 0.0 0.0
					CHANNELS 6 Xposition Yposition Zposition Zrotation Xrotation Yrotation 
					JOINT Toes_R
					{
						OFFSET -11.7543 0.0 0.0
						CHANNELS 6 Xposition Yposition Zposition Zrotation Xrotation Yrotation 
						End Site
						{
							OFFSET 0.0 0.0 0.0
						}
					}
				}
			}
		}
	}
}
MOTION
Frames:	6
Frame Time:	0.0333333
0.000000 0.000000 0.000000 0.000000 0.000000 -0.000000 -0.402112 90.634600 -1.367040 89.422000 -4.384720 11.542200 15.735700 0.000005 -0.000001 87.222400 79.043600 -87.757000 8.984550 -0.406207 -0.000000 14.118000 -1.079010 -0.936090 16.377300 -0.000001 -0.000001 6.689740 -3.419550 2.160880 6.456720 -0.000001 -0.000000 -3.058810 -2.763330 1.169560 12.994200 -0.242716 4.980390 -91.469500 6.631950 -77.476600 5.348090 -0.000007 -0.000001 -58.657900 36.107900 -24.377200 24.328600 0.000019 0.000005 9.656790 22.918400 -23.602800 22.291600 -0.000001 0.000005 13.378300 5.277350 0.698488 12.994500 -0.242716 -4.980390 88.963900 11.481100 -84.808100 -5.348130 -0.000001 -0.000004 -58.990200 35.925200 -19.599900 -24.328900 0.000322 -0.000009 3.046360 6.754430 -24.353800 -22.291500 -0.000108 -0.000004 16.391300 5.435120 -4.115820 -2.192480 -6.469440 -0.000000 -174.893000 -13.639800 -0.402983 39.081100 -0.000007 -0.000012 -0.179076 0.282079 32.409400 40.985400 -0.000006 -0.000013 0.986478 4.627040 -70.229100 11.754300 -0.000000 0.000003 -0.000191 -0.001778 -16.644700 -2.192510 6.469440 -0.000001 173.779000 19.667200 -178.900000 -39.081100 -0.002282 -0.040193 -0.213270 0.354390 31.429500 -40.985400 0.000008 0.000006 4.122160 15.534600 -70.744000 -11.754300 -0.000006 -0.000006 -0.002616 -0.036182 -18.044500
0.000000 0.000000 0.000000 0.000000 0.000000 -0.000000 -0.397235 90.634900 -1.354960 89.427000 -4.391130 11.572800 15.735700 0.000005 -0.000001 87.248700 79.034600 -87.790400 8.984550 -0.406207 -0.000000 14.136400 -1.070350 -0.951146 16.377300 -0.000001 -0.000001 6.830230 -3.432980 2.185460 6.456720 -0.000001 -0.000000 -3.117440 -2.759800 1.132770 12.994200 -0.242716 4.980390 -91.451900 6.534760 -77.444300 5.348090 -0.000007 -0.000001 -58.605800 35.790300 -24.571500 24.328600 0.000019 0.000005 9.956880 22.653100 -24.503300 22.291600 -0.000001 0.000005 13.817900 5.270440 0.886162 12.994500 -0.242716 -4.980390 88.954300 11.431700 -84.738100 -5.348130 -0.000001 -0.000004 -58.798100 35.844000 -19.844500 -24.328900 0.000322 -0.000009 3.216790 6.871030 -25.170500 -22.291500 -0.000108 -0.000004 16.711700 5.438130 -4.220590 -2.192480 -6.469440 -0.000000 -174.881000 -13.691000 -0.371203 39.081100 -0.000007 -0.000012 -0.177171 0.279109 32.406700 40.985400 -0.000006 -0.000013 1.002250 4.669180 -70.225100 11.754300 -0.000000 0.000003 -0.000194 -0.001802 -16.645600 -2.192510 6.469440 -0.000001 173.739000 19.683100 -178.856000 -39.081100 -0.002282 -0.040193 -0.218254 0.362619 31.424400 -40.985400 0.000008 0.000006 4.120170 15.571000 -70.746700 -11.754300 -0.000006 -0.000006 -0.002450 -0.034214 -17.964400
0.000000 0.000000 0.000000 0.000000 0.000000 -0.000000 -0.399438 90.628500 -1.350550 89.421500 -4.401340 11.566400 15.735700 0.000005 -0.000001 87.294600 79.034700 -87.840400 8.984550 -0.406207 -0.000000 14.137000 -1.053250 -0.961448 16.377300 -0.000001 -0.000001 6.929800 -3.450910 2.221920 6.456720 -0.000001 -0.000000 -3.126240 -2.735630 1.082540 12.994200 -0.242716 4.980390 -91.438100 6.450980 -77.404800 5.348090 -0.000007 -0.000001 -58.449800 35.445300 -24.841700 24.328600 0.000019 0.000005 10.330100 22.400700 -25.562000 22.291600 -0.000001 0.000005 14.201700 5.267020 0.978646 12.994500 -0.242716 -4.980390 88.938900 11.406500 -84.649500 -5.348130 -0.000001 -0.000004 -58.514900 35.720300 -20.167700 -24.328900 0.000322 -0.000009 3.431000 7.021720 -26.132000 -22.291500 -0.000108 -0.000004 17.051100 5.438270 -4.225170 -2.192480 -6.469440 -0.000000 -174.854000 -13.759000 -0.368921 39.081100 -0.000007 -0.000012 -0.177894 0.279948 32.434300 40.985400 -0.000006 -0.000013 1.012870 4.712350 -70.255700 11.754300 -0.000000 0.000003 -0.000195 -0.001811 -16.645900 -2.192510 6.469440 -0.000001 173.742000 19.680900 -178.870000 -39.081100 -0.002282 -0.040193 -0.220996 0.366716 31.451500 -40.985400 0.000008 0.000006 4.126170 15.580500 -70.766200 -11.754300 -0.000006 -0.000006 -0.002419 -0.033840 -17.949200
0.000000 0.000000 0.000000 0.000000 0.000000 -0.000000 -0.403604 90.628400 -1.349060 89.419100 -4.400920 11.568800 15.735700 0.000005 -0.000001 87.268100 79.035600 -87.822300 8.984550 -0.406207 -0.000000 14.134600 -1.063620 -0.976963 16.377300 -0.000001 -0.000001 7.107710 -3.450210 2.273080 6.456720 -0.000001 -0.000000 -3.200370 -2.704550 1.039740 12.994200 -0.242716 4.980390 -91.425700 6.375510 -77.367200 5.348090 -0.000007 -0.000001 -58.248600 34.970200 -25.142000 24.328600 0.000019 0.000005 10.786800 22.221100 -26.738100 22.291600 -0.000001 0.000005 14.760800 5.267160 0.974534 12.994500 -0.242716 -4.980390 88.928300 11.396300 -84.591600 -5.348130 -0.000001 -0.000004 -58.261700 35.407800 -20.467800 -24.328900 0.000322 -0.000009 3.707440 7.231850 -27.243100 -22.291500 -0.000108 -0.000004 17.512900 5.442050 -4.357450 -2.192480 -6.469440 -0.000000 -174.839000 -13.787100 -0.365885 39.081100 -0.000007 -0.000012 -0.178952 0.281593 32.436200 40.985400 -0.000006 -0.000013 1.017970 4.739960 -70.255500 11.754300 -0.000000 0.000003 -0.000186 -0.001740 -16.643300 -2.192510 6.469440 -0.000001 173.750000 19.691800 -178.869000 -39.081100 -0.002282 -0.040193 -0.217443 0.360888 31.452900 -40.985400 0.000008 0.000006 4.133340 15.581400 -70.767200 -11.754300 -0.000006 -0.000006 -0.002426 -0.033933 -17.953000
0.000000 0.000000 0.000000 0.000000 0.000000 -0.000000 -0.406759 90.624700 -1.341300 89.413600 -4.435860 11.591000 15.735700 0.000005 -0.000001 87.271700 79.048100 -87.832900 8.984550 -0.406207 -0.000000 14.109700 -1.061380 -0.991444 16.377300 -0.000001 -0.000001 7.360450 -3.435000 2.302460 6.456720 -0.000001 -0.000000 -3.234190 -2.670350 1.005450 12.994200 -0.242716 4.980390 -91.411100 6.284280 -77.317200 5.348090 -0.000007 -0.000001 -57.950000 34.513000 -25.525800 24.328600 0.000019 0.000005 11.278300 22.070300 -27.956900 22.291600 -0.000001 0.000005 15.291900 5.262700 1.094160 12.994500 -0.242716 -4.980390 88.924300 11.336300 -84.543200 -5.348130 -0.000001 -0.000004 -58.060900 35.010600 -20.766700 -24.328900 0.000322 -0.000009 3.961130 7.345980 -28.444600 -22.291500 -0.000108 -0.000004 17.949000 5.444630 -4.448670 -2.192480 -6.469440 -0.000000 -174.814000 -13.819300 -0.346540 39.081100 -0.000007 -0.000012 -0.179068 0.281564 32.455600 40.985400 -0.000006 -0.000013 1.017630 4.753190 -70.267000 11.754300 -0.000000 0.000003 -0.000194 -0.001808 -16.645800 -2.192510 6.469440 -0.000001 173.743000 19.685700 -178.849000 -39.081100 -0.002282 -0.040193 -0.219473 0.364018 31.466100 -40.985400 0.000008 0.000006 4.148060 15.625500 -70.780100 -11.754300 -0.000006 -0.000006 -0.002369 -0.033242 -17.924900
0.000000 0.000000 0.000000 0.000000 0.000000 -0.000000 -0.412077 90.625400 -1.340560 89.418000 -4.456310 11.610600 15.735700 0.000005 -0.000001 87.279100 79.059000 -87.853300 8.984550 -0.406207 -0.000000 14.087800 -1.058210 -1.018070 16.377300 -0.000001 -0.000001 7.626740 -3.428860 2.332500 6.456720 -0.000001 -0.000000 -3.259560 -2.667920 0.978149 12.994200 -0.242716 4.980390 -91.397600 6.195890 -77.262100 5.348090 -0.000007 -0.000001 -57.549900 33.927700 -26.046900 24.328600 0.000019 0.000005 11.954800 22.143500 -29.324000 22.291600 -0.000001 0.000005 15.707200 5.257660 1.229220 12.994500 -0.242716 -4.980390 88.914200 11.243800 -84.447900 -5.348130 -0.000001 -0.000004 -57.840600 34.550700 -21.145000 -24.328900 0.000322 -0.000009 4.286160 7.526620 -29.783300 -22.291500 -0.000108 -0.000004 18.388300 5.448580 -4.588220 -2.192480 -6.469440 -0.000000 -174.807000 -13.818200 -0.319826 39.081100 -0.000007 -0.000012 -0.180090 0.283264 32.447200 40.985400 -0.000006 -0.000013 1.006070 4.737200 -70.263000 11.754300 -0.000000 0.000003 -0.000197 -0.001829 -16.646600 -2.192510 6.469440 -0.000001 173.728000 19.717000 -178.824000 -39.081100 -0.002282 -0.040193 -0.218424 0.362325 31.464700 -40.985400 0.000008 0.000006 4.162480 15.650100 -70.784400 -11.754300 -0.000006 -0.000006 -0.002427 -0.033940 -17.953300
